G04 DipTrace 2.3.0.0*
%INBottomSilk.gbr*%
%MOIN*%
%ADD40C,0.0077*%
%ADD41C,0.0093*%
%FSLAX44Y44*%
G04*
G70*
G90*
G75*
G01*
%LNBotSilk*%
%LPD*%
X16547Y18665D2*
D40*
X16499Y18689D1*
X16427Y18760D1*
Y18259D1*
X15585Y18647D2*
Y18671D1*
X15561Y18719D1*
X15537Y18743D1*
X15489Y18767D1*
X15393D1*
X15346Y18743D1*
X15322Y18719D1*
X15298Y18671D1*
Y18624D1*
X15322Y18576D1*
X15370Y18504D1*
X15609Y18265D1*
X15274D1*
X14540Y18767D2*
X14278D1*
X14421Y18576D1*
X14349D1*
X14302Y18552D1*
X14278Y18528D1*
X14253Y18456D1*
Y18409D1*
X14278Y18337D1*
X14325Y18289D1*
X14397Y18265D1*
X14469D1*
X14540Y18289D1*
X14564Y18313D1*
X14588Y18361D1*
X13387Y18265D2*
Y18767D1*
X13626Y18432D1*
X13267D1*
X12329Y18755D2*
X12568D1*
X12592Y18540D1*
X12568Y18564D1*
X12496Y18588D1*
X12425D1*
X12353Y18564D1*
X12305Y18517D1*
X12281Y18445D1*
Y18397D1*
X12305Y18325D1*
X12353Y18277D1*
X12425Y18253D1*
X12496D1*
X12568Y18277D1*
X12592Y18302D1*
X12616Y18349D1*
X11296Y18696D2*
X11319Y18743D1*
X11391Y18767D1*
X11439D1*
X11511Y18743D1*
X11559Y18671D1*
X11583Y18552D1*
Y18432D1*
X11559Y18337D1*
X11511Y18289D1*
X11439Y18265D1*
X11415D1*
X11344Y18289D1*
X11296Y18337D1*
X11272Y18409D1*
Y18432D1*
X11296Y18504D1*
X11344Y18552D1*
X11415Y18576D1*
X11439D1*
X11511Y18552D1*
X11559Y18504D1*
X11583Y18432D1*
X16671Y16698D2*
X16169Y16890D1*
X16671Y17081D1*
X16504Y17009D2*
Y16770D1*
X16265Y16544D2*
X16240Y16496D1*
X16169Y16424D1*
X16671D1*
X15654Y16801D2*
X15152Y16993D1*
X15654Y17184D1*
X15487Y17112D2*
Y16873D1*
X15272Y16622D2*
X15248D1*
X15200Y16599D1*
X15176Y16575D1*
X15152Y16527D1*
Y16431D1*
X15176Y16384D1*
X15200Y16360D1*
X15248Y16336D1*
X15295D1*
X15343Y16360D1*
X15415Y16407D1*
X15654Y16647D1*
Y16312D1*
X14166Y17082D2*
X14669D1*
Y16867D1*
X14644Y16795D1*
X14620Y16771D1*
X14573Y16747D1*
X14501D1*
X14453Y16771D1*
X14429Y16795D1*
X14405Y16867D1*
X14381Y16795D1*
X14357Y16771D1*
X14310Y16747D1*
X14262D1*
X14214Y16771D1*
X14190Y16795D1*
X14166Y16867D1*
Y17082D1*
X14405D2*
Y16867D1*
X14262Y16593D2*
X14238Y16545D1*
X14167Y16473D1*
X14669D1*
X13257Y17150D2*
X13759D1*
Y16934D1*
X13735Y16862D1*
X13711Y16839D1*
X13663Y16815D1*
X13592D1*
X13544Y16839D1*
X13520Y16862D1*
X13496Y16934D1*
X13472Y16862D1*
X13448Y16839D1*
X13400Y16815D1*
X13352D1*
X13305Y16839D1*
X13280Y16862D1*
X13257Y16934D1*
Y17150D1*
X13496D2*
Y16934D1*
X13377Y16636D2*
X13353D1*
X13305Y16612D1*
X13281Y16589D1*
X13257Y16540D1*
Y16445D1*
X13281Y16397D1*
X13305Y16374D1*
X13353Y16349D1*
X13400D1*
X13448Y16374D1*
X13520Y16421D1*
X13759Y16660D1*
Y16325D1*
X12182Y17232D2*
X12684Y17041D1*
X12182Y16850D1*
X12301Y16337D2*
X12253Y16361D1*
X12205Y16409D1*
X12182Y16456D1*
Y16552D1*
X12205Y16600D1*
X12253Y16647D1*
X12301Y16672D1*
X12373Y16696D1*
X12493D1*
X12564Y16672D1*
X12612Y16647D1*
X12660Y16600D1*
X12684Y16552D1*
Y16456D1*
X12660Y16409D1*
X12612Y16361D1*
X12564Y16337D1*
X12301Y15824D2*
X12253Y15847D1*
X12205Y15896D1*
X12182Y15943D1*
Y16039D1*
X12205Y16087D1*
X12253Y16134D1*
X12301Y16159D1*
X12373Y16182D1*
X12493D1*
X12564Y16159D1*
X12612Y16134D1*
X12660Y16087D1*
X12684Y16039D1*
Y15943D1*
X12660Y15896D1*
X12612Y15847D1*
X12564Y15824D1*
X11284Y16798D2*
X11236Y16822D1*
X11188Y16870D1*
X11165Y16917D1*
Y17013D1*
X11188Y17061D1*
X11236Y17109D1*
X11284Y17133D1*
X11356Y17157D1*
X11476D1*
X11547Y17133D1*
X11595Y17109D1*
X11643Y17061D1*
X11667Y17013D1*
Y16917D1*
X11643Y16870D1*
X11595Y16822D1*
X11547Y16798D1*
X11476D1*
Y16917D1*
X11165Y16309D2*
X11667D1*
X11165Y16644D1*
X11667D1*
X11165Y16154D2*
X11667D1*
Y15987D1*
X11643Y15915D1*
X11595Y15867D1*
X11547Y15843D1*
X11476Y15819D1*
X11356D1*
X11284Y15843D1*
X11236Y15867D1*
X11188Y15915D1*
X11165Y15987D1*
Y16154D1*
X14675Y12529D2*
X14699Y12577D1*
X14747Y12625D1*
X14794Y12648D1*
X14890D1*
X14938Y12625D1*
X14986Y12577D1*
X15010Y12529D1*
X15034Y12457D1*
Y12337D1*
X15010Y12266D1*
X14986Y12218D1*
X14938Y12170D1*
X14890Y12146D1*
X14794D1*
X14747Y12170D1*
X14699Y12218D1*
X14675Y12266D1*
Y12337D1*
X14794D1*
X14234Y12481D2*
Y12146D1*
Y12409D2*
X14281Y12457D1*
X14329Y12481D1*
X14401D1*
X14449Y12457D1*
X14496Y12409D1*
X14521Y12337D1*
Y12290D1*
X14496Y12218D1*
X14449Y12170D1*
X14401Y12146D1*
X14329D1*
X14281Y12170D1*
X14234Y12218D1*
X14079Y12481D2*
Y12242D1*
X14056Y12170D1*
X14007Y12146D1*
X13936D1*
X13888Y12170D1*
X13816Y12242D1*
Y12481D2*
Y12146D1*
X13375Y12457D2*
Y12074D1*
X13399Y12003D1*
X13423Y11979D1*
X13471Y11955D1*
X13542D1*
X13590Y11979D1*
X13375Y12385D2*
X13423Y12433D1*
X13471Y12457D1*
X13542D1*
X13590Y12433D1*
X13638Y12385D1*
X13662Y12313D1*
Y12265D1*
X13638Y12194D1*
X13590Y12146D1*
X13542Y12122D1*
X13471D1*
X13423Y12146D1*
X13375Y12194D1*
X13221Y12337D2*
X12934D1*
Y12385D1*
X12958Y12433D1*
X12981Y12457D1*
X13029Y12481D1*
X13101D1*
X13149Y12457D1*
X13197Y12409D1*
X13221Y12337D1*
Y12290D1*
X13197Y12218D1*
X13149Y12170D1*
X13101Y12146D1*
X13029D1*
X12981Y12170D1*
X12934Y12218D1*
X15100Y11860D2*
X15148Y11908D1*
X15220Y11932D1*
X15315D1*
X15387Y11908D1*
X15435Y11860D1*
Y11812D1*
X15411Y11764D1*
X15387Y11740D1*
X15340Y11717D1*
X15196Y11669D1*
X15148Y11645D1*
X15124Y11621D1*
X15100Y11573D1*
Y11501D1*
X15148Y11454D1*
X15220Y11429D1*
X15315D1*
X15387Y11454D1*
X15435Y11501D1*
X14874Y11932D2*
Y11525D1*
X14850Y11454D1*
X14802Y11429D1*
X14755D1*
X14946Y11764D2*
X14779D1*
X14600Y11621D2*
X14314D1*
Y11669D1*
X14337Y11717D1*
X14361Y11740D1*
X14409Y11764D1*
X14481D1*
X14529Y11740D1*
X14577Y11692D1*
X14600Y11621D1*
Y11573D1*
X14577Y11501D1*
X14529Y11454D1*
X14481Y11429D1*
X14409D1*
X14361Y11454D1*
X14314Y11501D1*
X14159Y11764D2*
Y11262D1*
Y11692D2*
X14111Y11740D1*
X14064Y11764D1*
X13992D1*
X13944Y11740D1*
X13896Y11692D1*
X13872Y11621D1*
Y11572D1*
X13896Y11501D1*
X13944Y11453D1*
X13992Y11429D1*
X14064D1*
X14111Y11453D1*
X14159Y11501D1*
X13717Y11764D2*
Y11262D1*
Y11692D2*
X13669Y11740D1*
X13622Y11764D1*
X13550D1*
X13502Y11740D1*
X13454Y11692D1*
X13430Y11621D1*
Y11572D1*
X13454Y11501D1*
X13502Y11453D1*
X13550Y11429D1*
X13622D1*
X13669Y11453D1*
X13717Y11501D1*
X13276Y11621D2*
X12989D1*
Y11669D1*
X13013Y11717D1*
X13036Y11740D1*
X13084Y11764D1*
X13156D1*
X13204Y11740D1*
X13252Y11692D1*
X13276Y11621D1*
Y11573D1*
X13252Y11501D1*
X13204Y11454D1*
X13156Y11429D1*
X13084D1*
X13036Y11454D1*
X12989Y11501D1*
X12834Y11764D2*
Y11429D1*
Y11621D2*
X12810Y11692D1*
X12763Y11740D1*
X12714Y11764D1*
X12643D1*
X15642Y11246D2*
Y10744D1*
X15426D1*
X15354Y10768D1*
X15330Y10792D1*
X15307Y10840D1*
Y10912D1*
X15330Y10960D1*
X15354Y10983D1*
X15426Y11007D1*
X15354Y11031D1*
X15330Y11055D1*
X15307Y11103D1*
Y11151D1*
X15330Y11198D1*
X15354Y11223D1*
X15426Y11246D1*
X15642D1*
Y11007D2*
X15426D1*
X15152Y11079D2*
Y10744D1*
Y10935D2*
X15128Y11007D1*
X15080Y11055D1*
X15032Y11079D1*
X14961D1*
X14806Y10935D2*
X14519D1*
Y10983D1*
X14543Y11031D1*
X14567Y11055D1*
X14615Y11079D1*
X14687D1*
X14734Y11055D1*
X14782Y11007D1*
X14806Y10935D1*
Y10888D1*
X14782Y10816D1*
X14734Y10768D1*
X14687Y10744D1*
X14615D1*
X14567Y10768D1*
X14519Y10816D1*
X14078Y11079D2*
Y10744D1*
Y11007D2*
X14126Y11055D1*
X14174Y11079D1*
X14245D1*
X14293Y11055D1*
X14341Y11007D1*
X14365Y10935D1*
Y10888D1*
X14341Y10816D1*
X14293Y10768D1*
X14245Y10744D1*
X14174D1*
X14126Y10768D1*
X14078Y10816D1*
X13924Y11246D2*
Y10744D1*
X13684Y11079D2*
X13924Y10840D1*
X13828Y10935D2*
X13661Y10744D1*
X13387Y11079D2*
X13434Y11055D1*
X13482Y11007D1*
X13506Y10935D1*
Y10888D1*
X13482Y10816D1*
X13434Y10768D1*
X13387Y10744D1*
X13315D1*
X13267Y10768D1*
X13219Y10816D1*
X13195Y10888D1*
Y10935D1*
X13219Y11007D1*
X13267Y11055D1*
X13315Y11079D1*
X13387D1*
X13041D2*
Y10840D1*
X13017Y10768D1*
X12969Y10744D1*
X12897D1*
X12849Y10768D1*
X12778Y10840D1*
Y11079D2*
Y10744D1*
X12551Y11246D2*
Y10840D1*
X12528Y10768D1*
X12479Y10744D1*
X12432D1*
X12623Y11079D2*
X12456D1*
X10546Y17404D2*
X10331D1*
X10259Y17428D1*
X10235Y17452D1*
X10211Y17499D1*
Y17547D1*
X10235Y17595D1*
X10259Y17619D1*
X10331Y17643D1*
X10546D1*
Y17141D1*
X10379Y17404D2*
X10211Y17141D1*
X10057Y17332D2*
X9770D1*
Y17380D1*
X9794Y17428D1*
X9817Y17452D1*
X9865Y17476D1*
X9937D1*
X9985Y17452D1*
X10033Y17404D1*
X10057Y17332D1*
Y17284D1*
X10033Y17212D1*
X9985Y17165D1*
X9937Y17141D1*
X9865D1*
X9817Y17165D1*
X9770Y17212D1*
X9615Y17476D2*
Y17141D1*
Y17380D2*
X9544Y17452D1*
X9496Y17476D1*
X9424D1*
X9376Y17452D1*
X9352Y17380D1*
Y17141D1*
X8911Y17452D2*
Y17069D1*
X8935Y16997D1*
X8959Y16973D1*
X9007Y16949D1*
X9079D1*
X9126Y16973D1*
X8911Y17380D2*
X8959Y17427D1*
X9007Y17452D1*
X9079D1*
X9126Y17427D1*
X9174Y17380D1*
X9198Y17308D1*
Y17260D1*
X9174Y17189D1*
X9126Y17141D1*
X9079Y17117D1*
X9007D1*
X8959Y17141D1*
X8911Y17189D1*
X8757Y17643D2*
X8733Y17619D1*
X8709Y17643D1*
X8733Y17667D1*
X8757Y17643D1*
X8733Y17476D2*
Y17141D1*
X8554Y17476D2*
Y17141D1*
Y17380D2*
X8482Y17452D1*
X8434Y17476D1*
X8363D1*
X8315Y17452D1*
X8291Y17380D1*
Y17141D1*
X8137Y17332D2*
X7850D1*
Y17380D1*
X7874Y17428D1*
X7897Y17452D1*
X7946Y17476D1*
X8017D1*
X8065Y17452D1*
X8113Y17404D1*
X8137Y17332D1*
Y17284D1*
X8113Y17212D1*
X8065Y17165D1*
X8017Y17141D1*
X7946D1*
X7897Y17165D1*
X7850Y17212D1*
X7696Y17332D2*
X7409D1*
Y17380D1*
X7432Y17428D1*
X7456Y17452D1*
X7504Y17476D1*
X7576D1*
X7624Y17452D1*
X7672Y17404D1*
X7696Y17332D1*
Y17284D1*
X7672Y17212D1*
X7624Y17165D1*
X7576Y17141D1*
X7504D1*
X7456Y17165D1*
X7409Y17212D1*
X7254Y17476D2*
Y17141D1*
Y17332D2*
X7230Y17404D1*
X7182Y17452D1*
X7134Y17476D1*
X7063D1*
X9029Y18427D2*
Y17924D1*
X9197Y18427D2*
X8862D1*
X8708D2*
Y17924D1*
Y18164D2*
X8636Y18236D1*
X8588Y18259D1*
X8516D1*
X8468Y18236D1*
X8444Y18164D1*
Y17924D1*
X8290Y18116D2*
X8003D1*
Y18164D1*
X8027Y18212D1*
X8051Y18236D1*
X8099Y18259D1*
X8171D1*
X8218Y18236D1*
X8266Y18188D1*
X8290Y18116D1*
Y18068D1*
X8266Y17996D1*
X8218Y17949D1*
X8171Y17924D1*
X8099D1*
X8051Y17949D1*
X8003Y17996D1*
X19177Y5090D2*
D41*
X19062Y4688D1*
X18947Y5090D1*
X18833Y4688D1*
X18718Y5090D1*
X18533D2*
X18418Y4688D1*
X18303Y5090D1*
X18188Y4688D1*
X18074Y5090D1*
X17888D2*
X17774Y4688D1*
X17659Y5090D1*
X17544Y4688D1*
X17429Y5090D1*
X17216Y4746D2*
X17244Y4717D1*
X17216Y4688D1*
X17186Y4717D1*
X17216Y4746D1*
X16800Y5291D2*
Y4688D1*
X17001Y5291D2*
X16599D1*
X16414D2*
Y4688D1*
Y4976D2*
X16328Y5062D1*
X16270Y5090D1*
X16184D1*
X16127Y5062D1*
X16098Y4976D1*
Y4688D1*
X15913Y4918D2*
X15569D1*
Y4976D1*
X15597Y5033D1*
X15626Y5062D1*
X15684Y5090D1*
X15770D1*
X15827Y5062D1*
X15884Y5004D1*
X15913Y4918D1*
Y4861D1*
X15884Y4775D1*
X15827Y4718D1*
X15770Y4688D1*
X15684D1*
X15626Y4718D1*
X15569Y4775D1*
X15384Y5004D2*
X15126D1*
X15039Y5033D1*
X15010Y5062D1*
X14982Y5119D1*
Y5177D1*
X15010Y5234D1*
X15039Y5263D1*
X15126Y5291D1*
X15384D1*
Y4688D1*
X15183Y5004D2*
X14982Y4688D1*
X14796Y4918D2*
X14452D1*
Y4976D1*
X14481Y5033D1*
X14509Y5062D1*
X14567Y5090D1*
X14653D1*
X14710Y5062D1*
X14768Y5004D1*
X14796Y4918D1*
Y4861D1*
X14768Y4775D1*
X14710Y4718D1*
X14653Y4688D1*
X14567D1*
X14509Y4718D1*
X14452Y4775D1*
X14267Y5090D2*
Y4688D1*
Y4976D2*
X14181Y5062D1*
X14123Y5090D1*
X14037D1*
X13980Y5062D1*
X13951Y4976D1*
Y4688D1*
X13422Y5062D2*
Y4602D1*
X13450Y4517D1*
X13479Y4487D1*
X13536Y4459D1*
X13623D1*
X13680Y4487D1*
X13422Y4976D2*
X13479Y5033D1*
X13536Y5062D1*
X13623D1*
X13680Y5033D1*
X13737Y4976D1*
X13766Y4889D1*
Y4832D1*
X13737Y4746D1*
X13680Y4688D1*
X13623Y4660D1*
X13536D1*
X13479Y4688D1*
X13422Y4746D1*
X13236Y5291D2*
X13208Y5263D1*
X13179Y5291D1*
X13208Y5320D1*
X13236Y5291D1*
X13208Y5090D2*
Y4688D1*
X12993Y5090D2*
Y4688D1*
Y4976D2*
X12907Y5062D1*
X12849Y5090D1*
X12764D1*
X12706Y5062D1*
X12678Y4976D1*
Y4688D1*
X12492Y4918D2*
X12148D1*
Y4976D1*
X12177Y5033D1*
X12205Y5062D1*
X12263Y5090D1*
X12349D1*
X12406Y5062D1*
X12464Y5004D1*
X12492Y4918D1*
Y4861D1*
X12464Y4775D1*
X12406Y4718D1*
X12349Y4688D1*
X12263D1*
X12205Y4718D1*
X12148Y4775D1*
X11963Y4918D2*
X11619D1*
Y4976D1*
X11647Y5033D1*
X11676Y5062D1*
X11733Y5090D1*
X11820D1*
X11877Y5062D1*
X11934Y5004D1*
X11963Y4918D1*
Y4861D1*
X11934Y4775D1*
X11877Y4718D1*
X11820Y4688D1*
X11733D1*
X11676Y4718D1*
X11619Y4775D1*
X11433Y5090D2*
Y4688D1*
Y4918D2*
X11404Y5004D1*
X11347Y5062D1*
X11290Y5090D1*
X11203D1*
X10990Y4746D2*
X11018Y4717D1*
X10990Y4688D1*
X10960Y4717D1*
X10990Y4746D1*
X10430Y5004D2*
X10488Y5062D1*
X10546Y5090D1*
X10631D1*
X10689Y5062D1*
X10746Y5004D1*
X10775Y4918D1*
Y4861D1*
X10746Y4775D1*
X10689Y4718D1*
X10631Y4688D1*
X10546D1*
X10488Y4718D1*
X10430Y4775D1*
X10102Y5090D2*
X10159Y5062D1*
X10216Y5004D1*
X10245Y4918D1*
Y4861D1*
X10216Y4775D1*
X10159Y4718D1*
X10102Y4688D1*
X10015D1*
X9958Y4718D1*
X9901Y4775D1*
X9872Y4861D1*
Y4918D1*
X9901Y5004D1*
X9958Y5062D1*
X10015Y5090D1*
X10102D1*
X9686D2*
Y4688D1*
Y4976D2*
X9600Y5062D1*
X9542Y5090D1*
X9457D1*
X9399Y5062D1*
X9371Y4976D1*
Y4688D1*
Y4976D2*
X9284Y5062D1*
X9227Y5090D1*
X9141D1*
X9083Y5062D1*
X9054Y4976D1*
Y4688D1*
M02*
