M48
INCH
T01C0.0191
T02C0.0354
T03C0.04
T04C0.0866
T05C0.0984
T06C0.1377
T07C0.138
T08C0.1496
%
T01
X+011440Y+006899
T02
X+020840Y+015928
X+022540Y+015928
X+022540Y+011952
X+022540Y+010928
X+020840Y+010928
X+020840Y+011952
X+018440Y+012444
X+018440Y+009436
X+020840Y+006952
X+022540Y+006952
X+009440Y+009436
X+009440Y+012444
X+006740Y+011952
X+006740Y+010928
X+004940Y+010928
X+004940Y+011952
X+004940Y+015928
X+006740Y+015928
X+006740Y+006952
X+004940Y+006952
T03
X+016440Y+017791
X+015440Y+017791
X+014440Y+017791
X+013440Y+017791
X+012440Y+017791
X+011440Y+017791
T04
X+008609Y+010940
X+019270Y+010940
T05
X+017495Y+014495
T06
X+005940Y+017740
T07
X+021940Y+017740
X+021940Y+005140
X+005940Y+005140
T08
X+013940Y+006991
T00
M30
