G04 DipTrace 2.3.0.0*
%INTop.gbr*%
%MOIN*%
%ADD13C,0.013*%
%ADD14R,0.074X0.074*%
%ADD15C,0.074*%
%ADD16R,0.0591X0.0591*%
%ADD17C,0.0591*%
%ADD18C,0.0591*%
%ADD19C,0.04*%
%FSLAX44Y44*%
G04*
G70*
G90*
G75*
G01*
%LNTop*%
%LPD*%
X4940Y15928D2*
D13*
X6740D1*
X22540D2*
X20840D1*
X12440Y17791D2*
Y16660D1*
X11714Y15934D1*
X6746D1*
X6740Y15928D1*
X4940Y6952D2*
X6740D1*
X20840D2*
X22540D1*
X11440Y6899D2*
X11469Y6870D1*
X6740Y6952D2*
X11440Y6899D1*
X11895D1*
X13044Y5750D1*
X15178D1*
X16333Y6905D1*
X20793D1*
X20840Y6952D1*
Y10928D2*
Y11952D1*
X18440Y12444D2*
X17688D1*
X15423Y14709D1*
Y17774D1*
X15440Y17791D1*
X22540Y11952D2*
Y10928D1*
X18440Y12444D2*
Y12562D1*
X21930D1*
X22540Y11952D1*
X6740D2*
Y10928D1*
X9440Y12444D2*
X11234D1*
X13464Y14674D1*
Y17767D1*
X13440Y17791D1*
X9440Y12444D2*
X7232D1*
X6740Y11952D1*
X4940D2*
Y10928D1*
Y9969D1*
X5485Y9425D1*
X9428D1*
X9440Y9436D1*
X12775D1*
X14444Y11104D1*
Y17787D1*
X14440Y17791D1*
D19*
X11440Y6899D3*
D3*
D3*
D14*
X16440Y17791D3*
D15*
X15440D3*
X14440D3*
X13440D3*
X12440D3*
X11440D3*
D16*
X20840Y15928D3*
D17*
Y11952D3*
D16*
X22540Y15928D3*
D17*
Y11952D3*
D16*
X6740Y15928D3*
D17*
Y11952D3*
D16*
X4940Y15928D3*
D17*
Y11952D3*
D16*
X20840Y10928D3*
D17*
Y6952D3*
D16*
X22540Y10928D3*
D17*
Y6952D3*
D16*
X6740Y10928D3*
D17*
Y6952D3*
D16*
X4940Y10928D3*
D17*
Y6952D3*
D18*
X18440Y12444D3*
X9440D3*
Y9436D3*
X18440D3*
M02*
