G04 DipTrace 2.3.0.0*
%INTopSilk.gbr*%
%MOIN*%
%ADD10C,0.0098*%
%ADD40C,0.0077*%
%FSLAX44Y44*%
G04*
G70*
G90*
G75*
G01*
%LNTopSilk*%
%LPD*%
X16940Y18291D2*
D10*
X10940D1*
X16940Y17291D2*
X10940D1*
X16940Y18291D2*
Y17291D1*
X10940Y18291D2*
Y17291D1*
X20387Y14945D2*
X21293D1*
Y12935D1*
X20387Y14611D2*
X21293D1*
X20387Y12935D2*
X21293D1*
X20387Y14945D2*
Y12935D1*
X22087Y14945D2*
X22993D1*
Y12935D1*
X22087Y14611D2*
X22993D1*
X22087Y12935D2*
X22993D1*
X22087Y14945D2*
Y12935D1*
X6287Y14945D2*
X7193D1*
Y12935D1*
X6287Y14611D2*
X7193D1*
X6287Y12935D2*
X7193D1*
X6287Y14945D2*
Y12935D1*
X4487Y14945D2*
X5393D1*
Y12935D1*
X4487Y14611D2*
X5393D1*
X4487Y12935D2*
X5393D1*
X4487Y14945D2*
Y12935D1*
X20387Y9945D2*
X21293D1*
Y7935D1*
X20387Y9611D2*
X21293D1*
X20387Y7935D2*
X21293D1*
X20387Y9945D2*
Y7935D1*
X22087Y9945D2*
X22993D1*
Y7935D1*
X22087Y9611D2*
X22993D1*
X22087Y7935D2*
X22993D1*
X22087Y9945D2*
Y7935D1*
X6287Y9945D2*
X7193D1*
Y7935D1*
X6287Y9611D2*
X7193D1*
X6287Y7935D2*
X7193D1*
X6287Y9945D2*
Y7935D1*
X4487Y9945D2*
X5393D1*
Y7935D1*
X4487Y9611D2*
X5393D1*
X4487Y7935D2*
X5393D1*
X4487Y9945D2*
Y7935D1*
X7740Y10940D2*
G02X7740Y10940I6200J0D01*
G01*
X10888Y16290D2*
X16991D1*
X10458Y18253D2*
D40*
Y17871D1*
X10434Y17799D1*
X10410Y17775D1*
X10362Y17751D1*
X10314D1*
X10267Y17775D1*
X10243Y17799D1*
X10219Y17871D1*
Y17918D1*
X10612Y18157D2*
X10660Y18181D1*
X10732Y18253D1*
Y17751D1*
X21418Y13692D2*
X21920D1*
Y13859D1*
X21896Y13931D1*
X21848Y13979D1*
X21800Y14003D1*
X21729Y14027D1*
X21609D1*
X21537Y14003D1*
X21490Y13979D1*
X21442Y13931D1*
X21418Y13859D1*
Y13692D1*
X21514Y14181D2*
X21490Y14229D1*
X21418Y14301D1*
X21920D1*
X23223Y13640D2*
X23725D1*
Y13808D1*
X23701Y13880D1*
X23653Y13928D1*
X23605Y13951D1*
X23534Y13975D1*
X23414D1*
X23342Y13951D1*
X23295Y13928D1*
X23247Y13880D1*
X23223Y13808D1*
Y13640D1*
X23343Y14154D2*
X23319D1*
X23271Y14178D1*
X23247Y14201D1*
X23223Y14250D1*
Y14345D1*
X23247Y14393D1*
X23271Y14416D1*
X23319Y14441D1*
X23367D1*
X23415Y14416D1*
X23486Y14369D1*
X23725Y14130D1*
Y14465D1*
X7535Y13584D2*
X8037D1*
Y13752D1*
X8013Y13824D1*
X7965Y13872D1*
X7917Y13895D1*
X7846Y13919D1*
X7726D1*
X7654Y13895D1*
X7607Y13872D1*
X7559Y13824D1*
X7535Y13752D1*
Y13584D1*
Y14122D2*
Y14384D1*
X7727Y14241D1*
Y14313D1*
X7750Y14360D1*
X7774Y14384D1*
X7846Y14409D1*
X7894D1*
X7965Y14384D1*
X8014Y14337D1*
X8037Y14265D1*
Y14193D1*
X8014Y14122D1*
X7989Y14098D1*
X7942Y14074D1*
X5539Y13628D2*
X6041D1*
Y13796D1*
X6017Y13868D1*
X5969Y13916D1*
X5921Y13940D1*
X5850Y13963D1*
X5730D1*
X5658Y13940D1*
X5611Y13916D1*
X5563Y13868D1*
X5539Y13796D1*
Y13628D1*
X6041Y14357D2*
X5539D1*
X5874Y14118D1*
Y14476D1*
X21418Y8507D2*
X21920D1*
Y8675D1*
X21896Y8747D1*
X21848Y8795D1*
X21800Y8818D1*
X21729Y8842D1*
X21609D1*
X21537Y8818D1*
X21490Y8795D1*
X21442Y8747D1*
X21418Y8675D1*
Y8507D1*
Y9283D2*
Y9045D1*
X21633Y9021D1*
X21610Y9045D1*
X21585Y9117D1*
Y9188D1*
X21610Y9260D1*
X21657Y9308D1*
X21729Y9332D1*
X21777D1*
X21848Y9308D1*
X21897Y9260D1*
X21920Y9188D1*
Y9117D1*
X21897Y9045D1*
X21872Y9021D1*
X21825Y8997D1*
X23167Y8484D2*
X23669D1*
Y8652D1*
X23645Y8724D1*
X23597Y8772D1*
X23549Y8796D1*
X23478Y8819D1*
X23358D1*
X23286Y8796D1*
X23239Y8772D1*
X23191Y8724D1*
X23167Y8652D1*
Y8484D1*
X23239Y9261D2*
X23191Y9237D1*
X23167Y9165D1*
Y9117D1*
X23191Y9046D1*
X23263Y8998D1*
X23382Y8974D1*
X23502D1*
X23597Y8998D1*
X23646Y9046D1*
X23669Y9117D1*
Y9141D1*
X23646Y9213D1*
X23597Y9261D1*
X23526Y9284D1*
X23502D1*
X23430Y9261D1*
X23382Y9213D1*
X23359Y9141D1*
Y9117D1*
X23382Y9046D1*
X23430Y8998D1*
X23502Y8974D1*
X7332Y8430D2*
X7834D1*
Y8598D1*
X7810Y8670D1*
X7762Y8718D1*
X7714Y8741D1*
X7643Y8765D1*
X7523D1*
X7451Y8741D1*
X7404Y8718D1*
X7356Y8670D1*
X7332Y8598D1*
Y8430D1*
X7834Y9015D2*
X7332Y9255D1*
Y8920D1*
X5567Y8445D2*
X6069D1*
Y8612D1*
X6045Y8684D1*
X5997Y8732D1*
X5949Y8756D1*
X5878Y8780D1*
X5758D1*
X5686Y8756D1*
X5639Y8732D1*
X5591Y8684D1*
X5567Y8612D1*
Y8445D1*
Y9053D2*
X5591Y8982D1*
X5639Y8958D1*
X5687D1*
X5734Y8982D1*
X5759Y9030D1*
X5782Y9125D1*
X5806Y9197D1*
X5854Y9245D1*
X5902Y9268D1*
X5974D1*
X6021Y9245D1*
X6046Y9221D1*
X6069Y9149D1*
Y9053D1*
X6046Y8982D1*
X6021Y8958D1*
X5974Y8934D1*
X5902D1*
X5854Y8958D1*
X5806Y9006D1*
X5782Y9077D1*
X5759Y9173D1*
X5734Y9221D1*
X5687Y9245D1*
X5639D1*
X5591Y9221D1*
X5567Y9149D1*
Y9053D1*
X18411Y4912D2*
Y5415D1*
X18219Y4912D1*
X18028Y5415D1*
Y4912D1*
X18565Y5318D2*
X18613Y5343D1*
X18685Y5414D1*
Y4912D1*
X7094Y17103D2*
X7309D1*
X7381Y17128D1*
X7405Y17151D1*
X7429Y17199D1*
Y17247D1*
X7405Y17295D1*
X7381Y17319D1*
X7309Y17343D1*
X7094D1*
Y16840D1*
X7262Y17103D2*
X7429Y16840D1*
X7583Y17032D2*
X7870D1*
Y17080D1*
X7846Y17128D1*
X7823Y17151D1*
X7775Y17175D1*
X7703D1*
X7655Y17151D1*
X7607Y17103D1*
X7583Y17032D1*
Y16984D1*
X7607Y16912D1*
X7655Y16865D1*
X7703Y16840D1*
X7775D1*
X7823Y16865D1*
X7870Y16912D1*
X8025Y17175D2*
Y16840D1*
Y17080D2*
X8096Y17151D1*
X8145Y17175D1*
X8216D1*
X8264Y17151D1*
X8288Y17080D1*
Y16840D1*
X8729Y17151D2*
Y16768D1*
X8705Y16697D1*
X8681Y16673D1*
X8633Y16649D1*
X8561D1*
X8514Y16673D1*
X8729Y17080D2*
X8681Y17127D1*
X8633Y17151D1*
X8561D1*
X8514Y17127D1*
X8466Y17080D1*
X8442Y17008D1*
Y16960D1*
X8466Y16888D1*
X8514Y16840D1*
X8561Y16817D1*
X8633D1*
X8681Y16840D1*
X8729Y16888D1*
X8883Y17343D2*
X8907Y17319D1*
X8931Y17343D1*
X8907Y17367D1*
X8883Y17343D1*
X8907Y17175D2*
Y16840D1*
X9086Y17175D2*
Y16840D1*
Y17080D2*
X9158Y17151D1*
X9206Y17175D1*
X9277D1*
X9325Y17151D1*
X9349Y17080D1*
Y16840D1*
X9503Y17032D2*
X9790D1*
Y17080D1*
X9766Y17128D1*
X9743Y17151D1*
X9695Y17175D1*
X9623D1*
X9575Y17151D1*
X9527Y17103D1*
X9503Y17032D1*
Y16984D1*
X9527Y16912D1*
X9575Y16865D1*
X9623Y16840D1*
X9695D1*
X9743Y16865D1*
X9790Y16912D1*
X9945Y17032D2*
X10231D1*
Y17080D1*
X10208Y17128D1*
X10184Y17151D1*
X10136Y17175D1*
X10064D1*
X10016Y17151D1*
X9968Y17103D1*
X9945Y17032D1*
Y16984D1*
X9968Y16912D1*
X10016Y16865D1*
X10064Y16840D1*
X10136D1*
X10184Y16865D1*
X10231Y16912D1*
X10386Y17175D2*
Y16840D1*
Y17032D2*
X10410Y17103D1*
X10458Y17151D1*
X10506Y17175D1*
X10578D1*
X8202Y18127D2*
Y17624D1*
X8035Y18127D2*
X8370D1*
X8524D2*
Y17624D1*
Y17864D2*
X8596Y17935D1*
X8644Y17959D1*
X8716D1*
X8763Y17935D1*
X8787Y17864D1*
Y17624D1*
X8942Y17815D2*
X9228D1*
Y17864D1*
X9205Y17912D1*
X9181Y17935D1*
X9133Y17959D1*
X9061D1*
X9013Y17935D1*
X8965Y17887D1*
X8942Y17815D1*
Y17768D1*
X8965Y17696D1*
X9013Y17649D1*
X9061Y17624D1*
X9133D1*
X9181Y17649D1*
X9228Y17696D1*
X18139Y18522D2*
X18116Y18570D1*
X18068Y18618D1*
X18020Y18642D1*
X17924D1*
X17876Y18618D1*
X17829Y18570D1*
X17804Y18522D1*
X17781Y18451D1*
Y18331D1*
X17804Y18259D1*
X17829Y18211D1*
X17876Y18164D1*
X17924Y18139D1*
X18020D1*
X18068Y18164D1*
X18116Y18211D1*
X18139Y18259D1*
Y18331D1*
X18020D1*
X18581Y18474D2*
Y18139D1*
Y18402D2*
X18533Y18451D1*
X18485Y18474D1*
X18414D1*
X18366Y18451D1*
X18318Y18402D1*
X18294Y18331D1*
Y18283D1*
X18318Y18211D1*
X18366Y18164D1*
X18414Y18139D1*
X18485D1*
X18533Y18164D1*
X18581Y18211D1*
X18735Y18474D2*
Y18235D1*
X18759Y18164D1*
X18807Y18139D1*
X18879D1*
X18926Y18164D1*
X18998Y18235D1*
Y18474D2*
Y18139D1*
X19439Y18451D2*
Y18068D1*
X19416Y17996D1*
X19392Y17972D1*
X19344Y17948D1*
X19272D1*
X19224Y17972D1*
X19439Y18379D2*
X19392Y18426D1*
X19344Y18451D1*
X19272D1*
X19224Y18426D1*
X19176Y18379D1*
X19152Y18307D1*
Y18259D1*
X19176Y18187D1*
X19224Y18139D1*
X19272Y18116D1*
X19344D1*
X19392Y18139D1*
X19439Y18187D1*
X19594Y18331D2*
X19881D1*
Y18379D1*
X19857Y18427D1*
X19833Y18451D1*
X19785Y18474D1*
X19713D1*
X19666Y18451D1*
X19617Y18402D1*
X19594Y18331D1*
Y18283D1*
X19617Y18211D1*
X19666Y18164D1*
X19713Y18139D1*
X19785D1*
X19833Y18164D1*
X19881Y18211D1*
X17824Y17853D2*
X17777Y17901D1*
X17705Y17925D1*
X17609D1*
X17538Y17901D1*
X17490Y17853D1*
Y17806D1*
X17514Y17758D1*
X17538Y17734D1*
X17585Y17710D1*
X17729Y17662D1*
X17777Y17638D1*
X17801Y17614D1*
X17824Y17566D1*
Y17494D1*
X17777Y17447D1*
X17705Y17423D1*
X17609D1*
X17538Y17447D1*
X17490Y17494D1*
X18051Y17925D2*
Y17518D1*
X18074Y17447D1*
X18123Y17423D1*
X18170D1*
X17979Y17758D2*
X18146D1*
X18324Y17614D2*
X18611D1*
Y17662D1*
X18588Y17710D1*
X18564Y17734D1*
X18516Y17758D1*
X18444D1*
X18396Y17734D1*
X18348Y17686D1*
X18324Y17614D1*
Y17566D1*
X18348Y17494D1*
X18396Y17447D1*
X18444Y17423D1*
X18516D1*
X18564Y17447D1*
X18611Y17494D1*
X18766Y17758D2*
Y17255D1*
Y17686D2*
X18814Y17733D1*
X18861Y17758D1*
X18933D1*
X18981Y17733D1*
X19029Y17686D1*
X19053Y17614D1*
Y17566D1*
X19029Y17494D1*
X18981Y17446D1*
X18933Y17423D1*
X18861D1*
X18814Y17446D1*
X18766Y17494D1*
X19207Y17758D2*
Y17255D1*
Y17686D2*
X19256Y17733D1*
X19303Y17758D1*
X19375D1*
X19423Y17733D1*
X19471Y17686D1*
X19495Y17614D1*
Y17566D1*
X19471Y17494D1*
X19423Y17446D1*
X19375Y17423D1*
X19303D1*
X19256Y17446D1*
X19207Y17494D1*
X19649Y17614D2*
X19936D1*
Y17662D1*
X19912Y17710D1*
X19889Y17734D1*
X19841Y17758D1*
X19769D1*
X19721Y17734D1*
X19673Y17686D1*
X19649Y17614D1*
Y17566D1*
X19673Y17494D1*
X19721Y17447D1*
X19769Y17423D1*
X19841D1*
X19889Y17447D1*
X19936Y17494D1*
X20091Y17758D2*
Y17423D1*
Y17614D2*
X20115Y17686D1*
X20162Y17734D1*
X20210Y17758D1*
X20282D1*
X17279Y17240D2*
Y16737D1*
X17494D1*
X17566Y16762D1*
X17590Y16786D1*
X17614Y16833D1*
Y16905D1*
X17590Y16953D1*
X17566Y16977D1*
X17494Y17001D1*
X17566Y17025D1*
X17590Y17049D1*
X17614Y17096D1*
Y17144D1*
X17590Y17192D1*
X17566Y17216D1*
X17494Y17240D1*
X17279D1*
Y17001D2*
X17494D1*
X17768Y17072D2*
Y16737D1*
Y16929D2*
X17792Y17001D1*
X17840Y17049D1*
X17888Y17072D1*
X17960D1*
X18114Y16929D2*
X18401D1*
Y16977D1*
X18377Y17025D1*
X18354Y17049D1*
X18306Y17072D1*
X18234D1*
X18186Y17049D1*
X18138Y17001D1*
X18114Y16929D1*
Y16881D1*
X18138Y16809D1*
X18186Y16762D1*
X18234Y16737D1*
X18306D1*
X18354Y16762D1*
X18401Y16809D1*
X18842Y17072D2*
Y16737D1*
Y17001D2*
X18795Y17049D1*
X18747Y17072D1*
X18676D1*
X18627Y17049D1*
X18580Y17001D1*
X18556Y16929D1*
Y16881D1*
X18580Y16809D1*
X18627Y16762D1*
X18676Y16737D1*
X18747D1*
X18795Y16762D1*
X18842Y16809D1*
X18997Y17240D2*
Y16737D1*
X19236Y17072D2*
X18997Y16833D1*
X19092Y16929D2*
X19260Y16737D1*
X19534Y17072D2*
X19486Y17049D1*
X19438Y17001D1*
X19414Y16929D1*
Y16881D1*
X19438Y16809D1*
X19486Y16762D1*
X19534Y16737D1*
X19606D1*
X19654Y16762D1*
X19701Y16809D1*
X19725Y16881D1*
Y16929D1*
X19701Y17001D1*
X19654Y17049D1*
X19606Y17072D1*
X19534D1*
X19880D2*
Y16833D1*
X19904Y16762D1*
X19952Y16737D1*
X20024D1*
X20071Y16762D1*
X20143Y16833D1*
Y17072D2*
Y16737D1*
X20369Y17240D2*
Y16833D1*
X20393Y16762D1*
X20441Y16737D1*
X20489D1*
X20297Y17072D2*
X20465D1*
X18023Y16289D2*
X18238D1*
X18310Y16313D1*
X18334Y16337D1*
X18358Y16384D1*
Y16432D1*
X18334Y16480D1*
X18310Y16504D1*
X18238Y16528D1*
X18023D1*
Y16026D1*
X18190Y16289D2*
X18358Y16026D1*
X18512Y16217D2*
X18799D1*
Y16265D1*
X18775Y16313D1*
X18751Y16337D1*
X18703Y16361D1*
X18632D1*
X18584Y16337D1*
X18536Y16289D1*
X18512Y16217D1*
Y16169D1*
X18536Y16097D1*
X18584Y16050D1*
X18632Y16026D1*
X18703D1*
X18751Y16050D1*
X18799Y16097D1*
X18953Y16361D2*
X19097Y16026D1*
X19240Y16361D1*
X19881Y16432D2*
X19929Y16456D1*
X20001Y16527D1*
Y16026D1*
M02*
